<svg xmlns="http://www.w3.org/2000/svg" viewBox="0 0 200 240"><title>Background</title><rect x="-0.41" y="164.82" width="295.35" height="76.02" style="fill:#ffe2ca"/><rect x="0.32" y="-58.31" width="295" height="236" style="fill:#d9b99c"/><path d="M247.88,143.65l-6.43-6,10.14-52.76,43.34-13.32v-1.3L251.86,83.56,263.65,22.2l10.93-5.12L294.93,50V47.39L275.82,16.5l19.11-8.95V6.16l-19.78,9.27L267.37,2.85l5.76-30,21.8,8.39v-1.33l-21.56-8.31,4.91-25.54,14,.93,2.68,2.57v-1.82l-.64-.62.64,0V-54l-2-.13-4.49-4.3h-1.9l4.35,4.16-12.36-.82.64-3.34h-1.43l-.62,3.25-47.62-3.17,0-.08H209.84l13.53.9L219.72-49l-24.51-9.44h-3.47l27.49,10.59-35,81.79L155.65-58.47h-1.46l29.19,94.36L171.32,64.07,165,67,99.81,6.67l53.6-65.14h-1.73L98.83,5.76,29.41-58.47H27.73L51.22,48.16.52,3V4.71L51.7,50.34l2.2,10-24,29.16L.52,26v3.28L28.94,90.7,12.72,110.4.52,97v2l11.35,12.49L.52,125.23v2.11l12.26-14.91,16.53,18.18L.52,144.1v1.38l29.67-13.9,14.29,15.71L.52,160.8v1.3L45.4,148.31l20.81,22.87,3,6.43H70.7l-1.4-3,2.75,3h1.8l-6.41-7.05L55.67,145.15l15.84-4.87,8.23,37.33h1.43l-8.32-37.74,59-18.12,10.74,9.58-19.8,46.28h1.5l19.39-45.31,36.06,32.14-43.2,13.17h4.25l40-12.2,13.69,12.2h2L182.24,165l37.53-11.44,7.46,24.09h1.46l-7.58-24.5,16.95-5.17-5.71,29.67h1.43l5.79-30.13,7.91-2.41,35.19,32.54h1.93l-35.66-33,46-14v-1.29Zm-7.64-7.07-34-31.43-1.78-5.74,45.59-14ZM250.34,84l-46.21,14.2-13-42.05,71-33.24Zm-46.11,19.23-3.06-2.83,2-.61ZM273.91,16l-10,4.67L267,4.82ZM266.28,1.09,241.21-39.42,271.8-27.64ZM276.87-54,272-28.89,240.13-41.17l-9.86-15.94Zm-52-3.46,3.77.25L238-42l-17-6.55Zm-4.31,10.08,18.59,7.16L265.9,3.06l-3.53,18.36L190.75,55l-5.89-19ZM184,37.93l5.46,17.64L173.2,63.19Zm-11.55,27,17.39-8.15,13,41.86-2.68.82-30.4-28.12Zm26.21,35-47.41,14.57,17.91-41.87Zm-28.09-34.1-1.94,4.53L166,67.93ZM99,7.68l64.78,59.93L104.29,95.48,59.55,55.59Zm4,88.4L66.93,113,55.4,60.64l3.32-4ZM29.59-56.51,98,6.77,58.56,54.7l-5.56-5ZM53.48,51.93l4.24,3.78L55,59ZM54.27,62l11.36,51.58-20.19,9.46L30.53,90.86ZM13.63,111.4,29.56,92l14.63,31.6L30.56,130ZM31.45,131l13.27-6.21,9.1,19.64-7.94,2.44Zm32.89,36.17L46.8,147.87l7.54-2.31ZM55.14,144,46,124.19l19.95-9.34,5.33,24.22Zm17.45-5.37-5.38-24.41L104,97l26.69,23.8Zm32.72-42.26,59.45-27.85,3.33,3.08L149.52,115l-17.34,5.33Zm37.77,33.67-9.82-8.76,15.63-4.8ZM181.15,164l-37-33L150.62,116l49.1-15.09,5.28,4.88,14.41,46.57Zm57.17-17.43-17.58,5.36-13.69-44.27L240,138.1Zm1.52-.47,1.32-6.88,5.27,4.87Z" style="fill:#c9aa91"/><rect x="122.65" y="14.51" width="172.26" height="163.26" style="fill:#e0974f"/><rect x="127.28" y="19.73" width="27.12" height="27.12" style="fill:#ce8746"/><rect x="160.99" y="19.73" width="27.12" height="27.12" style="fill:#ce8746"/><rect x="194.71" y="19.73" width="27.12" height="27.12" style="fill:#ce8746"/><rect x="127.28" y="51.38" width="27.12" height="27.12" style="fill:#ce8746"/><rect x="160.99" y="51.38" width="27.12" height="27.12" style="fill:#ce8746"/><rect x="194.71" y="51.38" width="27.12" height="27.12" style="fill:#ce8746"/><rect x="127.15" y="82.83" width="161.93" height="89.76" style="fill:#ce8746"/><polygon points="148.37 103.91 158.66 103.37 159.28 158.85 151.38 160.33 148.37 103.91" style="fill:#282842"/><path d="M188.2,103.37h28.66s-8.24-8.49-14-8.56S188.2,103.37,188.2,103.37Zm25.4-1H191.45s6.85-6.68,11.32-6.62S213.6,102.4,213.6,102.4Z" style="fill:#fff"/><rect x="191.5" y="101.99" width="21.81" height="31.12" style="fill:#e0e0e0"/><rect x="164.66" y="55.53" width="19.54" height="19.64" style="fill:#ee534f"/><polygon points="173.54 54.23 174.9 54.33 175.53 56.66 173.33 56.76 173.54 54.23" style="fill:#e0e0e0"/><polygon points="171.7 52.88 174.43 54.27 173.61 57.49 169.82 55.53 171.7 52.88" style="fill:#ff6969"/><polygon points="177.16 52.88 174.43 54.27 175.25 57.49 179.04 55.53 177.16 52.88" style="fill:#ff6969"/><rect x="173.3" y="54.23" width="2.27" height="20.93" style="fill:#ff6969"/><rect x="198.79" y="56.58" width="19.54" height="19.64" style="fill:#e0e0e0"/><rect x="131.51" y="54.71" width="19.54" height="19.64" style="fill:#ff9e00"/><polygon points="140.39 53.41 141.75 53.51 142.38 55.84 140.18 55.94 140.39 53.41" style="fill:#e0e0e0"/><polygon points="138.55 52.06 141.28 53.45 140.46 56.67 136.67 54.71 138.55 52.06" style="fill:#fff"/><polygon points="144 52.06 141.28 53.45 142.09 56.67 145.89 54.71 144 52.06" style="fill:#fff"/><rect x="140.14" y="53.41" width="2.27" height="20.93" style="fill:#fff"/><path d="M133.79,56.87a.7.7,0,1,1-.69-.69A.69.69,0,0,1,133.79,56.87Z" style="fill:#fff"/><circle cx="136.03" cy="56.87" r="0.69" style="fill:#fff"/><circle cx="138.97" cy="56.87" r="0.69" style="fill:#fff"/><path d="M133.79,60a.7.7,0,1,1-.69-.69A.69.69,0,0,1,133.79,60Z" style="fill:#fff"/><circle cx="136.03" cy="60.03" r="0.69" style="fill:#fff"/><circle cx="138.97" cy="60.03" r="0.69" style="fill:#fff"/><path d="M133.79,63.19a.7.7,0,0,1-1.39,0,.7.7,0,0,1,1.39,0Z" style="fill:#fff"/><circle cx="136.03" cy="63.19" r="0.69" style="fill:#fff"/><circle cx="138.97" cy="63.19" r="0.69" style="fill:#fff"/><path d="M133.79,66.35a.7.7,0,1,1-.69-.69A.69.69,0,0,1,133.79,66.35Z" style="fill:#fff"/><circle cx="136.03" cy="66.35" r="0.69" style="fill:#fff"/><circle cx="138.97" cy="66.35" r="0.69" style="fill:#fff"/><path d="M133.79,69.52a.7.7,0,1,1-.69-.7A.69.69,0,0,1,133.79,69.52Z" style="fill:#fff"/><circle cx="136.03" cy="69.52" r="0.69" style="fill:#fff"/><circle cx="138.97" cy="69.52" r="0.69" style="fill:#fff"/><path d="M133.79,72.68a.7.7,0,1,1-.69-.69A.69.69,0,0,1,133.79,72.68Z" style="fill:#fff"/><circle cx="136.03" cy="72.68" r="0.69" style="fill:#fff"/><circle cx="138.97" cy="72.68" r="0.69" style="fill:#fff"/><path d="M144.49,56.87a.69.69,0,1,1-.69-.69A.69.69,0,0,1,144.49,56.87Z" style="fill:#fff"/><circle cx="146.74" cy="56.87" r="0.69" style="fill:#fff"/><circle cx="149.68" cy="56.87" r="0.69" style="fill:#fff"/><path d="M144.49,60a.69.69,0,1,1-.69-.69A.69.69,0,0,1,144.49,60Z" style="fill:#fff"/><circle cx="146.74" cy="60.03" r="0.69" style="fill:#fff"/><circle cx="149.68" cy="60.03" r="0.69" style="fill:#fff"/><path d="M144.49,63.19a.69.69,0,1,1-.69-.69A.69.69,0,0,1,144.49,63.19Z" style="fill:#fff"/><circle cx="146.74" cy="63.19" r="0.69" style="fill:#fff"/><circle cx="149.68" cy="63.19" r="0.69" style="fill:#fff"/><path d="M144.49,66.35a.69.69,0,1,1-.69-.69A.69.69,0,0,1,144.49,66.35Z" style="fill:#fff"/><circle cx="146.74" cy="66.35" r="0.69" style="fill:#fff"/><circle cx="149.68" cy="66.35" r="0.69" style="fill:#fff"/><path d="M144.49,69.52a.69.69,0,1,1-.69-.7A.69.69,0,0,1,144.49,69.52Z" style="fill:#fff"/><circle cx="146.74" cy="69.52" r="0.69" style="fill:#fff"/><circle cx="149.68" cy="69.52" r="0.69" style="fill:#fff"/><path d="M144.49,72.68a.69.69,0,1,1-.69-.69A.69.69,0,0,1,144.49,72.68Z" style="fill:#fff"/><circle cx="146.74" cy="72.68" r="0.69" style="fill:#fff"/><circle cx="149.68" cy="72.68" r="0.69" style="fill:#fff"/><rect x="165.07" y="24.16" width="19.54" height="19.64" style="fill:#d9b99c"/><polygon points="173.95 22.86 175.32 22.96 175.95 25.29 173.74 25.39 173.95 22.86" style="fill:#e0e0e0"/><rect x="173.71" y="22.87" width="2.27" height="20.93" style="fill:#c9aa91"/><polygon points="172.12 21.52 174.84 22.91 174.03 26.13 170.23 24.16 172.12 21.52" style="fill:#fff"/><polygon points="177.57 21.52 174.84 22.91 175.66 26.13 179.45 24.16 177.57 21.52" style="fill:#fff"/><rect x="131.07" y="23.49" width="19.54" height="19.64" style="fill:#fff"/><polygon points="139.95 22.19 141.31 22.29 141.94 24.62 139.74 24.71 139.95 22.19" style="fill:#e0e0e0"/><rect x="139.7" y="22.19" width="2.27" height="20.93" style="fill:#ffe2ca"/><polygon points="138.11 20.84 140.84 22.23 140.02 25.45 136.23 23.48 138.11 20.84" style="fill:#fff"/><polygon points="143.57 20.84 140.84 22.23 141.66 25.45 145.45 23.48 143.57 20.84" style="fill:#fff"/><rect x="198.79" y="24.24" width="19.54" height="19.64" style="fill:#6b3000"/><rect x="127.93" y="91.79" width="161.14" height="1" style="fill:#d3d3d3"/><path d="M147.34,95.79s-.45-1.49,0-1.87,1.87-.39,1.63-1.4S148.4,91,147.14,91s-1.58,1.53-1.58,1.53h-.39a1.86,1.86,0,0,1,1.91-1.92c2,0,2.64,1.09,2.48,2.17-.22,1.42-1.53.67-1.92,1.33a1.7,1.7,0,0,0,0,1.46Z" style="fill:#d3d3d3"/><path d="M147.28,95.4c-6.49.09-15.74,9.62-15.74,9.62h32.2S153.78,95.31,147.28,95.4Zm.09,1.09c5-.06,12.71,7.44,12.71,7.44H135.2S142.35,96.56,147.37,96.49Z" style="fill:#fff"/><path d="M139,103.37S132.15,144.83,136,149,157,152.88,157,152.88l-1.23-49.51Z" style="fill:#d9b99c"/><path d="M192.89,165.71a3.4,3.4,0,0,1,2.83-2.29c2.09-.08,2.65,2.56,2.65,2.56l-3.47.54Z" style="fill:#fff"/><path d="M196,164.27c-1.75,0-3.31.64-3.67,2.69a6.76,6.76,0,0,0,.34,3.62h6.63s.34-3.18,0-3.81S197.71,164.27,196,164.27Z" style="fill:#e0e0e0"/><rect x="192.55" y="170.58" width="6.63" height="2" style="fill:#6b3000"/><path d="M192.89,170.58s0-4,2.71-4.06,3.09,4.06,3.09,4.06Z" style="fill:#fff;opacity:0.1"/><rect x="194.93" y="164.12" width="1.4" height="6.49" style="fill:#ff9e00"/><rect x="131.24" y="156.71" width="17.1" height="15.87" style="fill:#e0e0e0"/><rect x="131.24" y="163.11" width="17.1" height="0.92" style="fill:#282842"/><rect x="133.48" y="163.57" width="2.41" height="1.4" style="fill:#282842"/><rect x="142.87" y="163.57" width="2.41" height="1.4" style="fill:#282842"/><rect x="156.05" y="160.33" width="13.49" height="12.52" style="fill:#fff"/><rect x="156.05" y="168.98" width="13.49" height="0.73" style="fill:#6b3000"/><rect x="12.89" y="16.29" width="66.97" height="145.51" style="fill:#314354"/><rect x="17.07" y="21.06" width="58.62" height="135.97" style="fill:#c5eff7"/><path d="M19.18,23.73H73.23s.9,112.13-9.34,124-43.3,6.57-43.3,6.57Z" style="fill:#fff;opacity:0.4"/></svg>